<?xml version="1.0" encoding="UTF-8"?>
<svg version="1.1" xmlns="http://www.w3.org/2000/svg" width="500" height="500">
<path d="M0 0 C165 0 330 0 500 0 C500 165 500 330 500 500 C335 500 170 500 0 500 C0 335 0 170 0 0 Z " fill="#FEFEFE" transform="translate(0,0)"/>
<path d="M0 0 C2.69356552 2.69356552 2.76854243 4.85477498 3.5078125 8.58203125 C3.70333206 9.55882088 3.70333206 9.55882088 3.90280151 10.55534363 C4.17699975 11.93403676 4.44742234 13.31348536 4.71435547 14.69360352 C5.12175725 16.79576762 5.54229867 18.89497412 5.96484375 20.99414062 C8.1803478 32.20603787 8.1803478 32.20603787 8 37 C8.79921875 37.09796875 9.5984375 37.1959375 10.421875 37.296875 C27.40630124 39.60930862 41.88443054 45.85007144 55 57 C59.9335117 54.64593858 64.51978158 52.13615289 69 49 C67.38102741 52.30081791 65.64075691 55.52557433 63.875 58.75 C63.33617187 59.73484375 62.79734375 60.7196875 62.2421875 61.734375 C61.83226562 62.48203125 61.42234375 63.2296875 61 64 C61.85271484 65.05574219 61.85271484 65.05574219 62.72265625 66.1328125 C73.56408914 79.99681517 80.0048941 94.25966371 81 112 C82.20527344 112.11214844 83.41054688 112.22429687 84.65234375 112.33984375 C91.02328867 113.04772652 97.27788739 114.32088035 103.5625 115.5625 C104.76197266 115.79646484 105.96144531 116.03042969 107.19726562 116.27148438 C110.1321579 116.84443147 113.06636078 117.42067727 116 118 C113.34344883 120.65655117 111.27330775 120.75760625 107.6015625 121.5078125 C106.31765625 121.77207031 105.03375 122.03632813 103.7109375 122.30859375 C103.04030273 122.44249512 102.36966797 122.57639648 101.67871094 122.71435547 C99.63807251 123.12238612 97.60024232 123.54261329 95.5625 123.96484375 C85.55715055 126 85.55715055 126 81 126 C80.88785156 127.25490234 80.88785156 127.25490234 80.7734375 128.53515625 C78.77175899 146.25589835 70.69670637 159.45494045 61 174 C63.64 177.96 66.28 181.92 69 186 C64.71256628 186 62.60964536 183.71887243 59.25390625 181.21484375 C57.1456372 179.8363917 57.1456372 179.8363917 55.0859375 180.0546875 C52.11621218 181.40051807 49.684626 183.25250714 47.0625 185.1875 C35.77481537 193.23800418 22.21129367 199.96895184 8 199 C8.33 197.35 8.66 195.7 9 194 C10.70542969 193.58041016 10.70542969 193.58041016 12.4453125 193.15234375 C25.60832839 189.78642572 38.81503854 185.48052609 49 176 C49.33 175.34 49.66 174.68 50 174 C49.44820068 173.89727783 48.89640137 173.79455566 48.32788086 173.6887207 C45.47959454 172.84603421 43.2899543 171.52811984 40.75390625 169.98046875 C39.75166016 169.37009766 38.74941406 168.75972656 37.71679688 168.13085938 C36.67587891 167.48955078 35.63496094 166.84824219 34.5625 166.1875 C33.00692383 165.24293945 33.00692383 165.24293945 31.41992188 164.27929688 C21.78656767 158.38296639 21.78656767 158.38296639 18 155 C17.6953125 152.37890625 17.6953125 152.37890625 18.125 149.5625 C18.25132812 148.63566406 18.37765625 147.70882812 18.5078125 146.75390625 C18.9708857 144.16290141 19.48381045 141.58094773 20 139 C13.73 136.36 7.46 133.72 1 131 C1 165.32 1 199.64 1 235 C-1.20192683 231.69710975 -1.71356673 229.37392851 -2.5078125 225.50390625 C-2.77207031 224.22322266 -3.03632813 222.94253906 -3.30859375 221.62304688 C-3.44249512 220.956521 -3.57639648 220.28999512 -3.71435547 219.60327148 C-4.12315455 217.57167127 -4.54315855 215.54263209 -4.96484375 213.51367188 C-7 203.54341133 -7 203.54341133 -7 199 C-8.30582031 199.05027344 -9.61164063 199.10054687 -10.95703125 199.15234375 C-15.89978597 199.14365022 -20.03782525 198.16711382 -24.6875 196.5625 C-25.45989014 196.30098145 -26.23228027 196.03946289 -27.02807617 195.77001953 C-35.85012934 192.5988417 -43.56153428 187.76693993 -50.7109375 181.69921875 C-51.46632812 181.13847656 -52.22171875 180.57773437 -53 180 C-58.26777234 180.81943125 -62.62436635 184.09031468 -67 187 C-65.23570801 182.02790438 -62.6060834 177.56561939 -60 173 C-60.97839844 171.72769531 -60.97839844 171.72769531 -61.9765625 170.4296875 C-68.07758008 162.30940127 -72.40641397 154.50600629 -76 145 C-76.53753906 143.78957031 -76.53753906 143.78957031 -77.0859375 142.5546875 C-78.25339591 139.29179093 -78.67581136 136.12058462 -79.125 132.6875 C-79.29257813 131.43324219 -79.46015625 130.17898437 -79.6328125 128.88671875 C-79.75398438 127.93410156 -79.87515625 126.98148437 -80 126 C-81.22847656 125.88527344 -82.45695312 125.77054687 -83.72265625 125.65234375 C-89.70255505 124.9858281 -95.55123841 123.78984816 -101.4375 122.5625 C-102.52482422 122.34529297 -103.61214844 122.12808594 -104.73242188 121.90429688 C-105.76818359 121.68966797 -106.80394531 121.47503906 -107.87109375 121.25390625 C-108.80880615 121.06127197 -109.74651855 120.8686377 -110.71264648 120.67016602 C-113 120 -113 120 -115 118 C-110.98144056 117.13773349 -106.96125896 116.28352266 -102.93945312 115.43652344 C-101.57343177 115.14768165 -100.20786134 114.85669823 -98.84277344 114.56347656 C-96.87296485 114.14075852 -94.90133706 113.72654641 -92.9296875 113.3125 C-91.74616699 113.06113281 -90.56264648 112.80976563 -89.34326172 112.55078125 C-86.15658212 112.02579591 -83.22196156 111.89703452 -80 112 C-79.98582031 111.46375 -79.97164062 110.9275 -79.95703125 110.375 C-78.90510208 93.089245 -71.09535445 77.05137438 -60 64 C-60.51691406 63.15695313 -61.03382813 62.31390625 -61.56640625 61.4453125 C-62.22511719 60.34960938 -62.88382813 59.25390625 -63.5625 58.125 C-64.22378906 57.03445312 -64.88507813 55.94390625 -65.56640625 54.8203125 C-66.03949219 53.88960937 -66.51257813 52.95890625 -67 52 C-66.505 51.01 -66.505 51.01 -66 50 C-65.40832031 50.433125 -64.81664062 50.86625 -64.20703125 51.3125 C-63.41683594 51.869375 -62.62664062 52.42625 -61.8125 53 C-61.03519531 53.556875 -60.25789063 54.11375 -59.45703125 54.6875 C-56.62984348 56.19773067 -55.15676967 56.48565687 -52 56 C-50.02372496 54.76666303 -50.02372496 54.76666303 -48.1875 53 C-37.12894132 43.95875717 -21.45755371 36.76668986 -7 37 C-6.96334229 36.44199707 -6.92668457 35.88399414 -6.88891602 35.30908203 C-6.26650209 27.66316168 -4.65979865 20.33962618 -2.9375 12.875 C-2.65583984 11.63234375 -2.37417969 10.3896875 -2.08398438 9.109375 C-1.39465632 6.07165816 -0.6998882 3.0352979 0 0 Z " fill="#4DB1B6" transform="translate(252,103)"/>
<path d="M0 0 C2 1 2 1 2.68603516 3.05371094 C2.88503418 3.93833008 3.0840332 4.82294922 3.2890625 5.734375 C3.50820313 6.70117188 3.72734375 7.66796875 3.953125 8.6640625 C4.17484375 9.68242188 4.3965625 10.70078125 4.625 11.75 C4.85445313 12.75289062 5.08390625 13.75578125 5.3203125 14.7890625 C6.32324832 19.29033396 7.13644675 23.36914328 7 28 C7.79921875 28.09796875 8.5984375 28.1959375 9.421875 28.296875 C26.40630124 30.60930862 40.88443054 36.85007144 54 48 C58.9335117 45.64593858 63.51978158 43.13615289 68 40 C66.38102741 43.30081791 64.64075691 46.52557433 62.875 49.75 C62.33617187 50.73484375 61.79734375 51.7196875 61.2421875 52.734375 C60.83226562 53.48203125 60.42234375 54.2296875 60 55 C60.56847656 55.70382813 61.13695312 56.40765625 61.72265625 57.1328125 C72.56408914 70.99681517 79.0048941 85.25966371 80 103 C81.20527344 103.11214844 82.41054688 103.22429687 83.65234375 103.33984375 C90.02328867 104.04772652 96.27788739 105.32088035 102.5625 106.5625 C103.76197266 106.79646484 104.96144531 107.03042969 106.19726562 107.27148438 C109.1321579 107.84443147 112.06636078 108.42067727 115 109 C112.34344883 111.65655117 110.27330775 111.75760625 106.6015625 112.5078125 C105.31765625 112.77207031 104.03375 113.03632813 102.7109375 113.30859375 C102.04030273 113.44249512 101.36966797 113.57639648 100.67871094 113.71435547 C98.63807251 114.12238612 96.60024232 114.54261329 94.5625 114.96484375 C84.55715055 117 84.55715055 117 80 117 C79.88785156 118.25490234 79.88785156 118.25490234 79.7734375 119.53515625 C77.77175899 137.25589835 69.69670637 150.45494045 60 165 C62.64 168.96 65.28 172.92 68 177 C63.71256628 177 61.60964536 174.71887243 58.25390625 172.21484375 C56.1456372 170.8363917 56.1456372 170.8363917 54.0859375 171.0546875 C51.11621218 172.40051807 48.684626 174.25250714 46.0625 176.1875 C34.77481537 184.23800418 21.21129367 190.96895184 7 190 C7.33 188.35 7.66 186.7 8 185 C9.13695312 184.72027344 10.27390625 184.44054687 11.4453125 184.15234375 C24.60832839 180.78642572 37.81503854 176.48052609 48 167 C48.33 166.34 48.66 165.68 49 165 C48.44820068 164.89727783 47.89640137 164.79455566 47.32788086 164.6887207 C44.47959454 163.84603421 42.2899543 162.52811984 39.75390625 160.98046875 C38.75166016 160.37009766 37.74941406 159.75972656 36.71679688 159.13085938 C35.67587891 158.48955078 34.63496094 157.84824219 33.5625 157.1875 C32.00692383 156.24293945 32.00692383 156.24293945 30.41992188 155.27929688 C20.78656767 149.38296639 20.78656767 149.38296639 17 146 C16.6953125 143.37890625 16.6953125 143.37890625 17.125 140.5625 C17.25132812 139.63566406 17.37765625 138.70882812 17.5078125 137.75390625 C17.9708857 135.16290141 18.48381045 132.58094773 19 130 C12.73 127.36 6.46 124.72 0 122 C3.95923117 117.38089697 7.83883705 113.12394406 12.1875 108.9375 C18.79930918 102.43555615 24.49707569 95.45077187 30 88 C30.44504883 87.39978027 30.89009766 86.79956055 31.34863281 86.18115234 C36.6297007 79.02164805 41.60816787 71.74819165 46 64 C43.85283885 64 42.22977837 66.08649161 40.59228516 67.35449219 C32.18133223 73.85528827 23.45919724 79.84660403 14.625 85.75 C14.01601868 86.1592572 13.40703735 86.5685144 12.77960205 86.99017334 C11.03625041 88.16025567 9.28855825 89.32350505 7.5390625 90.484375 C6.52021973 91.16209961 5.50137695 91.83982422 4.45166016 92.53808594 C2 94 2 94 0 94 C0 62.98 0 31.96 0 0 Z " fill="#1B394B" transform="translate(253,112)"/>
<path d="M0 0 C0.99 0.495 0.99 0.495 2 1 C-5.41220018 9.91506754 -13.03567297 18.57422055 -21 27 C-21.74765625 27.80179688 -22.4953125 28.60359375 -23.265625 29.4296875 C-28.00769627 34.36495427 -33.1245078 38.5898504 -38.53955078 42.74975586 C-43.48061445 46.54815676 -48.23035753 50.53578226 -52.91308594 54.64794922 C-56.78716735 58 -56.78716735 58 -59 58 C-59 58.66 -59 59.32 -59 60 C-45.66134595 53.01821792 -45.66134595 53.01821792 -33.53125 44.1796875 C-32 43 -32 43 -30 43 C-30 77.32 -30 111.64 -30 147 C-32.20192683 143.69710975 -32.71356673 141.37392851 -33.5078125 137.50390625 C-33.77207031 136.22322266 -34.03632813 134.94253906 -34.30859375 133.62304688 C-34.44249512 132.956521 -34.57639648 132.28999512 -34.71435547 131.60327148 C-35.12315455 129.57167127 -35.54315855 127.54263209 -35.96484375 125.51367188 C-38 115.54341133 -38 115.54341133 -38 111 C-39.30582031 111.05027344 -40.61164063 111.10054688 -41.95703125 111.15234375 C-46.89978597 111.14365022 -51.03782525 110.16711382 -55.6875 108.5625 C-56.84608521 108.17022217 -56.84608521 108.17022217 -58.02807617 107.77001953 C-66.85012934 104.5988417 -74.56153428 99.76693993 -81.7109375 93.69921875 C-82.46632812 93.13847656 -83.22171875 92.57773437 -84 92 C-89.26777234 92.81943125 -93.62436635 96.09031468 -98 99 C-96.23570801 94.02790438 -93.6060834 89.56561939 -91 85 C-91.65226562 84.15179688 -92.30453125 83.30359375 -92.9765625 82.4296875 C-99.07758008 74.30940127 -103.40641397 66.50600629 -107 57 C-107.36867187 56.18273437 -107.73734375 55.36546875 -108.1171875 54.5234375 C-109.21603736 51.38247729 -109.42398503 48.504247 -109.625 45.1875 C-109.69976562 44.02605469 -109.77453125 42.86460937 -109.8515625 41.66796875 C-109.90054688 40.78753906 -109.94953125 39.90710938 -110 39 C-108.35 39.33 -106.7 39.66 -105 40 C-104.63648438 41.23234375 -104.27296875 42.4646875 -103.8984375 43.734375 C-100.00407996 56.66714905 -95.73795068 68.46488216 -87 79 C-84.30469554 75.74747389 -81.98947667 72.49247302 -79.87109375 68.83984375 C-79.03094727 67.4022168 -79.03094727 67.4022168 -78.17382812 65.93554688 C-77.60083984 64.94619141 -77.02785156 63.95683594 -76.4375 62.9375 C-75.29256643 60.96616746 -74.14550951 58.99606625 -72.99609375 57.02734375 C-72.49263428 56.15843506 -71.9891748 55.28952637 -71.47045898 54.39428711 C-68.73896385 49.94670736 -68.73896385 49.94670736 -67 48 C-64.1015625 48.21484375 -64.1015625 48.21484375 -60.625 48.9375 C-56.08902241 49.4253404 -53.15884463 49.47455931 -49.43359375 46.84375 C-46.5914648 44.52018066 -43.96120076 41.98977266 -41.38183594 39.37988281 C-39.57605028 37.5766495 -37.64903804 35.9431762 -35.6875 34.3125 C-34.3571875 33.1678125 -34.3571875 33.1678125 -33 32 C-35.64 31.67 -38.28 31.34 -41 31 C-37.8474878 27.57638725 -34.33070756 25.11634303 -30.4375 22.625 C-24.06340595 18.46257208 -17.87877814 14.07782532 -11.75 9.5625 C-10.92814209 8.95937988 -10.10628418 8.35625977 -9.25952148 7.73486328 C-5.97256856 5.30097333 -2.83288263 2.96240158 0 0 Z " fill="#15374A" transform="translate(283,191)"/>
<path d="M0 0 C0 1.65 0 3.3 0 5 C-0.969375 5.1959375 -1.93875 5.391875 -2.9375 5.59375 C-10.58076336 7.25516168 -17.56479605 9.40209782 -24.5625 12.9375 C-25.20380859 13.26105469 -25.84511719 13.58460938 -26.50585938 13.91796875 C-29.80412674 15.65136474 -32.83360894 17.5502655 -35.83984375 19.75390625 C-39 22 -39 22 -41 22 C-38.25920033 25.16936108 -34.76441355 27.0485656 -31.1875 29.125 C-23.66387566 33.55920891 -16.31545655 38.23199057 -9 43 C-9.14322103 44.54191154 -9.28971789 46.08351892 -9.4375 47.625 C-9.55931641 48.91277344 -9.55931641 48.91277344 -9.68359375 50.2265625 C-10.01879197 53.16471971 -10.51383671 56.08302024 -11 59 C-5.39 61.31 0.22 63.62 6 66 C3.33003331 71.33993337 -0.10351005 72.49704858 -5.25 75.21875 C-8.3813731 76.91678082 -8.3813731 76.91678082 -10 81 C-42.01 81 -74.02 81 -107 81 C-107 80.67 -107 80.34 -107 80 C-102.98144056 79.13773349 -98.96125896 78.28352266 -94.93945312 77.43652344 C-93.57343177 77.14768165 -92.20786134 76.85669823 -90.84277344 76.56347656 C-88.87296485 76.14075852 -86.90133706 75.72654641 -84.9296875 75.3125 C-83.74616699 75.06113281 -82.56264648 74.80976563 -81.34326172 74.55078125 C-78.15658212 74.02579591 -75.22196156 73.89703452 -72 74 C-71.98582031 73.46375 -71.97164062 72.9275 -71.95703125 72.375 C-70.90510208 55.089245 -63.09535445 39.05137438 -52 26 C-52.51691406 25.15695313 -53.03382813 24.31390625 -53.56640625 23.4453125 C-54.22511719 22.34960938 -54.88382813 21.25390625 -55.5625 20.125 C-56.22378906 19.03445312 -56.88507813 17.94390625 -57.56640625 16.8203125 C-58.03949219 15.88960937 -58.51257813 14.95890625 -59 14 C-58.67 13.34 -58.34 12.68 -58 12 C-57.40832031 12.433125 -56.81664062 12.86625 -56.20703125 13.3125 C-55.41683594 13.869375 -54.62664062 14.42625 -53.8125 15 C-52.64654297 15.8353125 -52.64654297 15.8353125 -51.45703125 16.6875 C-48.62984348 18.19773067 -47.15676967 18.48565687 -44 18 C-42.02372496 16.76666303 -42.02372496 16.76666303 -40.1875 15 C-29.05686977 5.84235774 -14.49763312 -0.70149838 0 0 Z " fill="#143549" transform="translate(244,141)"/>
<path d="M0 0 C1.46413078 -0.0010952 1.46413078 -0.0010952 2.95783997 -0.00221252 C6.17778474 0.00126542 9.39627535 0.04013776 12.6159668 0.0793457 C14.8508373 0.08867305 17.08571803 0.09578953 19.32060242 0.1007843 C25.19809272 0.11985999 31.07496362 0.16896666 36.95220947 0.2243042 C42.95137147 0.27548381 48.95063371 0.29829565 54.94995117 0.32348633 C66.7178012 0.37708406 78.48519183 0.46240453 90.25268555 0.56762695 C87.20985378 2.59618147 85.37605453 3.12910064 81.8503418 3.85668945 C80.79524414 4.07583008 79.74014648 4.2949707 78.65307617 4.52075195 C77.00082031 4.85333008 77.00082031 4.85333008 75.31518555 5.19262695 C74.21754883 5.42208008 73.11991211 5.6515332 71.98901367 5.88793945 C67.63330925 6.78087215 63.71421378 7.56762695 59.25268555 7.56762695 C59.17791992 8.40422852 59.1031543 9.24083008 59.02612305 10.1027832 C57.02444454 27.8235253 48.94939192 41.0225674 39.25268555 55.56762695 C43.21268555 61.50762695 43.21268555 61.50762695 47.25268555 67.56762695 C42.96525183 67.56762695 40.86233091 65.28649938 37.5065918 62.7824707 C35.39832275 61.40401865 35.39832275 61.40401865 33.33862305 61.62231445 C30.36889773 62.96814503 27.93731154 64.8201341 25.31518555 66.75512695 C14.02750092 74.80563113 0.46397921 81.53657879 -13.74731445 80.56762695 C-13.41731445 78.91762695 -13.08731445 77.26762695 -12.74731445 75.56762695 C-11.61036133 75.28790039 -10.4734082 75.00817383 -9.30200195 74.7199707 C3.86101394 71.35405267 17.06772408 67.04815304 27.25268555 57.56762695 C27.74768555 56.57762695 27.74768555 56.57762695 28.25268555 55.56762695 C27.70088623 55.46490479 27.14908691 55.36218262 26.58056641 55.25634766 C23.73228009 54.41366116 21.54263985 53.09574679 19.0065918 51.5480957 C18.0043457 50.93772461 17.00209961 50.32735352 15.96948242 49.69848633 C14.92856445 49.05717773 13.88764648 48.41586914 12.81518555 47.75512695 C11.77813477 47.12541992 10.74108398 46.49571289 9.67260742 45.84692383 C0.03925321 39.95059335 0.03925321 39.95059335 -3.74731445 36.56762695 C-4.05200195 33.9465332 -4.05200195 33.9465332 -3.62231445 31.13012695 C-3.49598633 30.20329102 -3.3696582 29.27645508 -3.23950195 28.3215332 C-2.77642875 25.73052837 -2.263504 23.14857469 -1.74731445 20.56762695 C-8.01731445 17.92762695 -14.28731445 15.28762695 -20.74731445 12.56762695 C-18.76731445 10.25762695 -16.78731445 7.94762695 -14.74731445 5.56762695 C-13.99960281 4.60995926 -13.25189117 3.65229156 -12.48152161 2.66560364 C-8.43859747 -0.43656094 -4.96506532 -0.09732215 0 0 Z " fill="#143448" transform="translate(273.747314453125,221.432373046875)"/>
<path d="M0 0 C3.00617269 3.00617269 2.59585316 5.82381598 3 10 C2.67 10 2.34 10 2 10 C2 41.02 2 72.04 2 104 C0.02 104.99 0.02 104.99 -2 106 C-2 105.34 -2 104.68 -2 104 C-2.68449219 103.89816406 -3.36898437 103.79632813 -4.07421875 103.69140625 C-7.58269626 102.86230008 -10.55755526 101.4827768 -13.8125 99.9375 C-14.97394531 99.38964844 -16.13539063 98.84179688 -17.33203125 98.27734375 C-18.21246094 97.85582031 -19.09289062 97.43429688 -20 97 C-19.855625 96.26394531 -19.71125 95.52789062 -19.5625 94.76953125 C-19.376875 93.79371094 -19.19125 92.81789063 -19 91.8125 C-18.814375 90.84957031 -18.62875 89.88664062 -18.4375 88.89453125 C-18.293125 87.93933594 -18.14875 86.98414063 -18 86 C-17.8453125 85.14148438 -17.690625 84.28296875 -17.53125 83.3984375 C-17.78790216 80.68691265 -17.78790216 80.68691265 -20.71875 78.89453125 C-21.96922063 78.18275612 -23.23059229 77.48992506 -24.5 76.8125 C-25.86678739 76.03804802 -27.23263988 75.26194426 -28.59765625 74.484375 C-29.31453613 74.08283203 -30.03141602 73.68128906 -30.77001953 73.26757812 C-34.54694686 71.1206757 -38.24351505 68.84827844 -41.9375 66.5625 C-42.64132813 66.13751221 -43.34515625 65.71252441 -44.0703125 65.2746582 C-45.74890552 64.23831129 -47.38017995 63.12599843 -49 62 C-49 61.34 -49 60.68 -49 60 C-46.67849226 58.30386557 -44.37712721 56.76047122 -41.9375 55.25 C-41.21739746 54.80406494 -40.49729492 54.35812988 -39.75537109 53.89868164 C-29.96339246 47.99548072 -19.66135997 43.05487699 -8 43 C-8 41.35 -8 39.7 -8 38 C-9.32 37.67 -10.64 37.34 -12 37 C-10.35 37 -8.7 37 -7 37 C-6.94501343 36.16299561 -6.94501343 36.16299561 -6.88891602 35.30908203 C-6.26650209 27.66316168 -4.65979865 20.33962618 -2.9375 12.875 C-2.65583984 11.63234375 -2.37417969 10.3896875 -2.08398438 9.109375 C-1.39465632 6.07165816 -0.6998882 3.0352979 0 0 Z " fill="#48ABAF" transform="translate(252,103)"/>
<path d="M0 0 C10.51376147 3.50458716 10.51376147 3.50458716 14.5 5.0625 C15.3353125 5.38347656 16.170625 5.70445312 17.03125 6.03515625 C19 7 19 7 20 9 C19.57407249 11.75521858 18.96947564 14.45233972 18.375 17.17578125 C17.96676664 20.25028878 18.03792328 22.05480933 19 25 C21.12358243 26.90164226 21.12358243 26.90164226 23.8828125 28.41015625 C24.88570313 29.00763672 25.88859375 29.60511719 26.921875 30.22070312 C27.97890625 30.82849609 29.0359375 31.43628906 30.125 32.0625 C31.15882813 32.67416016 32.19265625 33.28582031 33.2578125 33.91601562 C38.47606281 36.99438395 43.73193062 40.00779628 49 43 C46.76501922 48.80333078 41.12706269 51.01649301 36 54 C35.21238281 54.46921875 34.42476563 54.9384375 33.61328125 55.421875 C26.37378475 59.40421263 16.37263939 63 8 63 C7.67 64.65 7.34 66.3 7 68 C7.99 68.33 8.98 68.66 10 69 C9.01 69 8.02 69 7 69 C6.90203125 69.55042969 6.8040625 70.10085938 6.703125 70.66796875 C4.88207641 80.79362688 2.93340929 90.89533324 1 101 C0.67 101 0.34 101 0 101 C0 67.67 0 34.34 0 0 Z " fill="#4BB2B6" transform="translate(253,234)"/>
<path d="M0 0 C2 1 2 1 2.68603516 3.05371094 C2.88503418 3.93833008 3.0840332 4.82294922 3.2890625 5.734375 C3.50820313 6.70117188 3.72734375 7.66796875 3.953125 8.6640625 C4.17484375 9.68242188 4.3965625 10.70078125 4.625 11.75 C4.85445313 12.75289062 5.08390625 13.75578125 5.3203125 14.7890625 C6.32324832 19.29033396 7.13644675 23.36914328 7 28 C7.90363281 28.12117188 8.80726563 28.24234375 9.73828125 28.3671875 C10.91777344 28.53476563 12.09726562 28.70234375 13.3125 28.875 C14.48425781 29.03742188 15.65601563 29.19984375 16.86328125 29.3671875 C20 30 20 30 23 32 C21.515 32.495 21.515 32.495 20 33 C20 33.66 20 34.32 20 35 C18.741875 35.020625 17.48375 35.04125 16.1875 35.0625 C15.12595703 35.07990234 15.12595703 35.07990234 14.04296875 35.09765625 C12 35 12 35 9 34 C9.14099121 34.65371582 9.28198242 35.30743164 9.42724609 35.98095703 C14.58495547 60.00380161 14.58495547 60.00380161 16 72 C16.55985596 71.66154053 17.11971191 71.32308105 17.6965332 70.97436523 C20.2289668 69.45143851 22.77047654 67.94436012 25.3125 66.4375 C26.19357422 65.90447266 27.07464844 65.37144531 27.98242188 64.82226562 C28.82998047 64.32275391 29.67753906 63.82324219 30.55078125 63.30859375 C31.33106689 62.84251709 32.11135254 62.37644043 32.9152832 61.89624023 C35 61 35 61 38 62 C37.835 62.5775 37.67 63.155 37.5 63.75 C36.85537969 66.26664369 36.85537969 66.26664369 37 70 C35.61743164 71.47290039 35.61743164 71.47290039 33.66015625 72.84765625 C32.93441406 73.36561768 32.20867187 73.8835791 31.4609375 74.41723633 C30.27371094 75.23164185 30.27371094 75.23164185 29.0625 76.0625 C27.85787109 76.90880981 27.85787109 76.90880981 26.62890625 77.7722168 C20.98145149 81.71054438 15.26173843 85.54359965 9.5 89.3125 C8.7769165 89.78631104 8.05383301 90.26012207 7.30883789 90.74829102 C2.24689916 94 2.24689916 94 0 94 C0 62.98 0 31.96 0 0 Z " fill="#153448" transform="translate(253,112)"/>
<path d="M0 0 C2.21136276 0.48916893 4.41560557 1.01120624 6.61328125 1.55859375 C7.81339844 1.82599365 9.01351563 2.09339355 10.25 2.36889648 C14.10853358 3.23213375 17.95530304 4.13951248 21.80078125 5.05859375 C24.39816934 5.67431373 26.9959975 6.28816178 29.59375 6.90234375 C31.40431885 7.33160156 31.40431885 7.33160156 33.25146484 7.76953125 C37.36471874 8.73496601 41.48574187 9.65639935 45.61328125 10.55859375 C45.94328125 9.89859375 46.27328125 9.23859375 46.61328125 8.55859375 C46.61328125 9.54859375 46.61328125 10.53859375 46.61328125 11.55859375 C48.42119141 11.72681641 48.42119141 11.72681641 50.265625 11.8984375 C56.63656992 12.60632027 62.89116864 13.8794741 69.17578125 15.12109375 C70.37525391 15.35505859 71.57472656 15.58902344 72.81054688 15.83007812 C75.74543915 16.40302522 78.67964203 16.97927102 81.61328125 17.55859375 C78.72322179 19.20321422 76.69107678 19.80323583 73.37384033 19.76113892 C72.53534042 19.75547409 71.69684052 19.74980927 70.83293152 19.74397278 C69.4659185 19.71916084 69.4659185 19.71916084 68.07128906 19.69384766 C66.62200768 19.67965538 66.62200768 19.67965538 65.14344788 19.66517639 C61.9509078 19.63150739 58.75875677 19.58338923 55.56640625 19.53515625 C53.35252905 19.50898826 51.13864103 19.48372132 48.92474365 19.45932007 C43.09835111 19.39267778 37.27218613 19.31378277 31.44598389 19.23236084 C25.50053643 19.1514325 19.5549555 19.08205749 13.609375 19.01171875 C1.94385041 18.87200327 -9.72146643 18.71934706 -21.38671875 18.55859375 C-20.98087555 18.09248184 -20.57503235 17.62636993 -20.15689087 17.14613342 C-19.62123505 16.52693527 -19.08557922 15.90773712 -18.53369141 15.26977539 C-18.00409821 14.65928848 -17.474505 14.04880157 -16.92886353 13.41981506 C-15.52343712 11.72359975 -14.26892292 10.00249807 -13.03515625 8.1796875 C-12.28492188 7.12910156 -11.5346875 6.07851562 -10.76171875 4.99609375 C-9.65957031 3.38541016 -9.65957031 3.38541016 -8.53515625 1.7421875 C-4.87909672 -0.79346669 -4.22311907 -0.65974056 0 0 Z " fill="#4AADB2" transform="translate(286.38671875,203.44140625)"/>
<path d="M0 0 C0 3.3281403 -0.51645002 4.20678173 -2.23828125 6.95703125 C-2.72296875 7.73288574 -3.20765625 8.50874023 -3.70703125 9.30810547 C-4.23683594 10.13455566 -4.76664062 10.96100586 -5.3125 11.8125 C-5.85648437 12.66473145 -6.40046875 13.51696289 -6.9609375 14.39501953 C-14.71996966 26.38236416 -23.6277811 37.13443074 -33.50146484 47.4296875 C-34.97147853 48.9701124 -36.4175932 50.5305223 -37.86328125 52.09375 C-47.98895428 62.84259434 -60.52113898 71.88028724 -74 78 C-74.66 78 -75.32 78 -76 78 C-76 77.34 -76 76.68 -76 76 C-73.93147658 74.2334508 -71.85353028 72.57695989 -69.6875 70.9375 C-68.39133012 69.93697079 -67.09576356 68.93565954 -65.80078125 67.93359375 C-64.83132568 67.18698486 -64.83132568 67.18698486 -63.84228516 66.42529297 C-45.83646002 52.49499783 -30.09297618 36.86330487 -16 19 C-16.47163574 19.35408936 -16.94327148 19.70817871 -17.42919922 20.07299805 C-19.61884215 21.71616553 -21.80936166 23.35815983 -24 25 C-24.7312207 25.54865723 -25.46244141 26.09731445 -26.21582031 26.66259766 C-54.7114562 48 -54.7114562 48 -59 48 C-59 48.66 -59 49.32 -59 50 C-57.515 50.495 -57.515 50.495 -56 51 C-57.50607883 55.10088936 -59.96188878 56.53509554 -63.625 58.75 C-64.62789062 59.36359375 -65.63078125 59.9771875 -66.6640625 60.609375 C-67.82035156 61.29773438 -67.82035156 61.29773438 -69 62 C-68.79735321 59.26426839 -68.48029169 56.69399978 -68 54 C-67.85820312 53.19433594 -67.71640625 52.38867188 -67.5703125 51.55859375 C-65.9148767 45.61576522 -63.27700212 43.13364211 -58 40.0625 C-57.37262939 39.71880371 -56.74525879 39.37510742 -56.09887695 39.02099609 C-48.79012852 35.01064603 -41.94126578 30.38174603 -35.0625 25.6875 C-34.4524411 25.27242187 -33.8423822 24.85734375 -33.21383667 24.4296875 C-21.83380666 16.67888482 -10.72487631 8.64004054 0 0 Z " fill="#F0F5F5" transform="translate(300,173)"/>
<path d="M0 0 C0.66 0 1.32 0 2 0 C3.71956032 2.17303729 5.2795618 4.32418993 6.8125 6.625 C7.26173828 7.29926025 7.71097656 7.97352051 8.17382812 8.66821289 C12.3251885 15.12647037 14.87097167 21.60883179 17 29 C17.24363281 29.82886719 17.48726563 30.65773437 17.73828125 31.51171875 C18.63540535 34.81337955 19 37.55286859 19 41 C10.7615125 40.35792249 2.93960698 38.42994133 -5.0625 36.4375 C-6.41849231 36.10429849 -7.77461133 35.77161218 -9.13085938 35.43945312 C-12.42185101 34.63134486 -15.7114728 33.81806854 -19 33 C-17.8247397 29.16863079 -16.52742746 25.90550349 -14.35546875 22.5390625 C-13.84306641 21.73726562 -13.33066406 20.93546875 -12.80273438 20.109375 C-12.26970703 19.28953125 -11.73667969 18.4696875 -11.1875 17.625 C-10.13918681 15.99227488 -9.09100839 14.35946322 -8.04296875 12.7265625 C-7.5329834 11.94055664 -7.02299805 11.15455078 -6.49755859 10.34472656 C-4.62128483 7.4070459 -2.83659634 4.41728834 -1.0715332 1.41162109 C-0.71792725 0.94578613 -0.36432129 0.47995117 0 0 Z " fill="#F9FAFB" transform="translate(308,172)"/>
<path d="M0 0 C3.95665363 3.48367435 6.24742513 7.5355755 8.8125 12.0625 C9.68984176 13.5842364 10.56875379 15.10506853 11.44921875 16.625 C11.87895996 17.3675 12.30870117 18.11 12.75146484 18.875 C15.37035466 23.33233614 18.17592801 27.67037969 21 32 C17.71842529 34.18771648 15.45309895 34.69195011 11.609375 35.47265625 C10.34222656 35.73240234 9.07507813 35.99214844 7.76953125 36.25976562 C7.10904785 36.39165283 6.44856445 36.52354004 5.76806641 36.65942383 C3.76973276 37.0585587 1.77344845 37.46683179 -0.22265625 37.87695312 C-6.13709055 39.07841622 -12.01774492 40.18817694 -18 41 C-15.9407234 25.47413825 -10.81075454 11.5829513 0 0 Z " fill="#F9FAFA" transform="translate(196,172)"/>
<path d="M0 0 C5.06232532 0.51996752 8.58490904 2.98535624 12.75 5.6875 C13.45793701 6.13794678 14.16587402 6.58839355 14.89526367 7.05249023 C19.41517161 9.93895841 23.8936365 12.88497777 28.30078125 15.94140625 C30.13079584 17.17317246 30.13079584 17.17317246 33 18 C30.06846318 25.61200185 19.46078431 29.57451564 12.4765625 32.93359375 C6.011178 35.71758424 0.05683677 37.46022849 -7 37 C-6.42980015 29.37357694 -5.10896724 22.03270506 -3.5 14.5625 C-3.16162109 12.95084961 -3.16162109 12.95084961 -2.81640625 11.30664062 C-1.15408509 3.46225527 -1.15408509 3.46225527 0 0 Z " fill="#F9FBFB" transform="translate(269,259)"/>
<path d="M0 0 C2.73675134 2.73675134 2.78099654 5.00991338 3.5078125 8.80078125 C3.70333206 9.81086494 3.70333206 9.81086494 3.90280151 10.84135437 C4.17703108 12.26714392 4.44745194 13.6936705 4.71435547 15.12084961 C5.12179014 17.29536867 5.54230194 19.46704365 5.96484375 21.63867188 C8.18054113 33.23269231 8.18054113 33.23269231 8 38 C-6.77592288 39.34326572 -20.85559381 29.53839485 -32 21 C-29.36383818 18.20628223 -26.82438548 16.10372243 -23.515625 14.16015625 C-22.66226563 13.65419922 -21.80890625 13.14824219 -20.9296875 12.62695312 C-19.60324219 11.85254883 -19.60324219 11.85254883 -18.25 11.0625 C-16.50479906 10.03324574 -14.76000239 9.00330565 -13.015625 7.97265625 C-12.17580078 7.47781738 -11.33597656 6.98297852 -10.47070312 6.47314453 C-6.94467482 4.37076758 -3.47113164 2.19165638 0 0 Z " fill="#F8F9F9" transform="translate(235,258)"/>
<path d="M0 0 C15.02609208 2.2088646 28.67384259 7.61768904 40 18 C37.04041505 21.47429537 33.79776896 23.33011886 29.83984375 25.4375 C25.58297191 27.77965782 21.45387265 30.33043556 17.31713867 32.87768555 C13.95302859 34.92435108 10.67090114 36.59261197 7 38 C6.85900879 37.28980713 6.71801758 36.57961426 6.57275391 35.84790039 C5.92454618 32.5858919 5.27478365 29.32419492 4.625 26.0625 C4.40328125 24.94552734 4.1815625 23.82855469 3.953125 22.67773438 C2.83347808 17.06303438 1.68842786 11.4661272 0.34521484 5.90014648 C0 4 0 4 0 0 Z " fill="#FAFAFA" transform="translate(262,146)"/>
<path d="M0 0 C-1.45381219 12.52014382 -4.22271911 24.71965743 -7 37 C-10.58399916 35.65494761 -13.79935678 34.05402324 -17.08984375 32.1015625 C-18.03923828 31.53953125 -18.98863281 30.9775 -19.96679688 30.3984375 C-20.94712891 29.81320313 -21.92746094 29.22796875 -22.9375 28.625 C-23.91396484 28.0475 -24.89042969 27.47 -25.89648438 26.875 C-36.61084608 20.51175875 -36.61084608 20.51175875 -40 18 C-40 17.34 -40 16.68 -40 16 C-28.72795029 7.764442 -14.44848574 -1.52089324 0 0 Z " fill="#F8FAFA" transform="translate(243,147)"/>
<path d="M0 0 C-2.55564018 14.04563219 -6.96935396 25.20688503 -15 37 C-15.66 37.99 -16.32 38.98 -17 40 C-20.35968495 38.88010502 -20.55503778 38.55375423 -22.19921875 35.640625 C-22.60027832 34.94267822 -23.00133789 34.24473145 -23.41455078 33.52563477 C-23.83462402 32.77467529 -24.25469727 32.02371582 -24.6875 31.25 C-25.57292365 29.70108187 -26.45965912 28.15291294 -27.34765625 26.60546875 C-28.01112061 25.444104 -28.01112061 25.444104 -28.68798828 24.25927734 C-31.21055097 19.91543753 -33.91438098 15.68460394 -36.6015625 11.44140625 C-38 9 -38 9 -38 7 C-34.37531184 6.20690119 -30.7501926 5.41578956 -27.125 4.625 C-25.60519531 4.29242188 -25.60519531 4.29242188 -24.0546875 3.953125 C-21.03781407 3.2956013 -18.01934381 2.64607786 -15 2 C-14.07155273 1.79858398 -13.14310547 1.59716797 -12.18652344 1.38964844 C-11.31801758 1.20692383 -10.44951172 1.02419922 -9.5546875 0.8359375 C-8.79397949 0.67399902 -8.03327148 0.51206055 -7.24951172 0.34521484 C-4.8025484 -0.03030134 -2.47184328 -0.05829562 0 0 Z " fill="#F8F9F9" transform="translate(327,231)"/>
<path d="M0 0 C8.24170155 1.47796652 16.46633934 3.03708351 24.6875 4.625 C25.87794922 4.85445312 27.06839844 5.08390625 28.29492188 5.3203125 C31.19671417 5.87969415 34.0984044 6.43959913 37 7 C34.77656585 13.02083853 31.42398769 18.40387592 28.17797852 23.9128418 C27.05921949 25.81808671 25.95641722 27.73202755 24.85351562 29.64648438 C24.14419551 30.85473449 23.43394172 32.06243708 22.72265625 33.26953125 C22.08078369 34.36885986 21.43891113 35.46818848 20.77758789 36.60083008 C20.19098389 37.39255615 19.60437988 38.18428223 19 39 C18.01 39 17.02 39 16 39 C7.41406246 30.0296175 0.27037253 15.51673479 -0.125 3.0625 C-0.08375 2.051875 -0.0425 1.04125 0 0 Z " fill="#FAFBFB" transform="translate(179,231)"/>
<path d="M0 0 C3.85254042 2.68781889 7.12928758 5.21014246 8.13671875 10.01953125 C8.41850545 15.72328282 7.12695409 19.34940251 3.6875 23.875 C-1.37514654 27.7028547 -7.21242633 27.68289666 -13.3125 26.875 C-17.13228202 25.10152978 -18.79586877 23.61550477 -21.1875 20.1875 C-22.9606066 14.96668612 -23.25384131 10.22835329 -21.1875 5.0625 C-15.23339737 -1.88395307 -8.43309066 -2.86406852 0 0 Z " fill="#455D6F" transform="translate(344.3125,414.125)"/>
<path d="M0 0 C2.51625 -0.0825 5.0325 -0.165 7.625 -0.25 C8.79603271 -0.30462402 8.79603271 -0.30462402 9.99072266 -0.36035156 C15.10756939 -0.44089091 17.95525116 0.62330277 22 4 C24.33909307 7.5086396 24.41291057 8.87089433 24 13 C22.58488907 15.83022185 21.23416175 17.76583825 19 20 C19.3609375 20.49371094 19.721875 20.98742187 20.09375 21.49609375 C20.78984375 22.45708984 20.78984375 22.45708984 21.5 23.4375 C21.9640625 24.07558594 22.428125 24.71367187 22.90625 25.37109375 C24 27 24 27 24 28 C20.8125 28.4375 20.8125 28.4375 17 28 C15.49300905 26.32078152 14.43182371 24.55311519 13.265625 22.625 C11.97775101 20.64081369 11.97775101 20.64081369 8.6875 20.0625 C7.800625 20.041875 6.91375 20.02125 6 20 C6 22.64 6 25.28 6 28 C4.02 28 2.04 28 0 28 C0 18.76 0 9.52 0 0 Z " fill="#455D6F" transform="translate(360,413)"/>
<path d="M0 0 C2.51625 -0.0825 5.0325 -0.165 7.625 -0.25 C8.79603271 -0.30462402 8.79603271 -0.30462402 9.99072266 -0.36035156 C15.10756939 -0.44089091 17.95525116 0.62330277 22 4 C24.33909307 7.5086396 24.41291057 8.87089433 24 13 C22.58488907 15.83022185 21.23416175 17.76583825 19 20 C19.3609375 20.49371094 19.721875 20.98742187 20.09375 21.49609375 C20.78984375 22.45708984 20.78984375 22.45708984 21.5 23.4375 C21.9640625 24.07558594 22.428125 24.71367187 22.90625 25.37109375 C24 27 24 27 24 28 C20.8125 28.4375 20.8125 28.4375 17 28 C15.49300905 26.32078152 14.43182371 24.55311519 13.265625 22.625 C11.97775101 20.64081369 11.97775101 20.64081369 8.6875 20.0625 C7.800625 20.041875 6.91375 20.02125 6 20 C6 22.64 6 25.28 6 28 C4.02 28 2.04 28 0 28 C0 18.76 0 9.52 0 0 Z " fill="#455D6F" transform="translate(226,372)"/>
<path d="M0 0 C2.51625 -0.0825 5.0325 -0.165 7.625 -0.25 C8.79603271 -0.30462402 8.79603271 -0.30462402 9.99072266 -0.36035156 C15.1007707 -0.4407839 17.951248 0.63642141 22 4 C23.72617094 7.45234188 23.50110436 11.22544766 23 15 C21 18.0625 21 18.0625 19 20 C20.65 22.64 22.3 25.28 24 28 C20.8125 28.4375 20.8125 28.4375 17 28 C15.49300905 26.32078152 14.43182371 24.55311519 13.265625 22.625 C11.97775101 20.64081369 11.97775101 20.64081369 8.6875 20.0625 C7.800625 20.041875 6.91375 20.02125 6 20 C6 22.64 6 25.28 6 28 C4.02 28 2.04 28 0 28 C0 18.76 0 9.52 0 0 Z " fill="#465E6F" transform="translate(317,372)"/>
<path d="M0 0 C5 0 5 0 7.31640625 2.01171875 C8.05761719 2.89472656 8.79882812 3.77773438 9.5625 4.6875 C10.67818359 5.99267578 10.67818359 5.99267578 11.81640625 7.32421875 C13.89371083 9.86975298 15.94752368 12.4344046 18 15 C18.33 10.05 18.66 5.1 19 0 C20.98 0 22.96 0 25 0 C25 9.24 25 18.48 25 28 C20 28 20 28 17.68359375 25.98828125 C16.94238281 25.10527344 16.20117188 24.22226562 15.4375 23.3125 C14.32181641 22.00732422 14.32181641 22.00732422 13.18359375 20.67578125 C11.10628917 18.13024702 9.05247632 15.5655954 7 13 C6.67 17.95 6.34 22.9 6 28 C4.02 28 2.04 28 0 28 C0 18.76 0 9.52 0 0 Z " fill="#435B6D" transform="translate(114,413)"/>
<path d="M0 0 C2.31 0 4.62 0 7 0 C8.71133821 3.82585738 10.42027287 7.65277615 12.12695312 11.48071289 C12.70831827 12.78374466 13.29034814 14.08648006 13.87304688 15.38891602 C14.70876732 17.25720602 15.54211919 19.12653644 16.375 20.99609375 C17.12910156 22.68496704 17.12910156 22.68496704 17.8984375 24.40795898 C19 27 19 27 19 28 C16.69 28 14.38 28 12 28 C11.34 26.02 10.68 24.04 10 22 C3.565 22.495 3.565 22.495 -3 23 C-3.99 25.475 -3.99 25.475 -5 28 C-7.31 28 -9.62 28 -12 28 C-10.20513796 21.95523473 -7.50677707 16.33824153 -4.875 10.625 C-4.40707031 9.60277344 -3.93914062 8.58054687 -3.45703125 7.52734375 C-2.30741708 5.01696179 -1.15499936 2.50790769 0 0 Z " fill="#486071" transform="translate(157,413)"/>
<path d="M0 0 C2.31 0 4.62 0 7 0 C8.44641139 2.97491763 9.8804181 5.95566126 11.3125 8.9375 C11.71662109 9.76830078 12.12074219 10.59910156 12.53710938 11.45507812 C15.12530108 16.86292584 17.25445221 22.26388543 19 28 C16.69 28 14.38 28 12 28 C11.34 26.35 10.68 24.7 10 23 C5.71 22.67 1.42 22.34 -3 22 C-3.66 23.98 -4.32 25.96 -5 28 C-7.31 28 -9.62 28 -12 28 C-8 18.66666667 -4 9.33333333 0 0 Z " fill="#475F70" transform="translate(201,372)"/>
<path d="M0 0 C1.4540625 0.0309375 1.4540625 0.0309375 2.9375 0.0625 C14.9375 23.44002161 14.9375 23.44002161 14.9375 28.0625 C12.0625 28.25 12.0625 28.25 8.9375 28.0625 C6.9375 25.0625 6.9375 25.0625 6.9375 22.0625 C2.3175 22.0625 -2.3025 22.0625 -7.0625 22.0625 C-7.7225 24.0425 -8.3825 26.0225 -9.0625 28.0625 C-11.0425 28.0625 -13.0225 28.0625 -15.0625 28.0625 C-14.44611646 24.33907443 -13.3826056 21.22402797 -11.8125 17.796875 C-11.14734375 16.33894531 -11.14734375 16.33894531 -10.46875 14.8515625 C-9.77265625 13.34722656 -9.77265625 13.34722656 -9.0625 11.8125 C-8.36640625 10.28496094 -8.36640625 10.28496094 -7.65625 8.7265625 C-3.68819013 0.07526919 -3.68819013 0.07526919 0 0 Z " fill="#475F70" transform="translate(275.0625,412.9375)"/>
<path d="M0 0 C6.93 0 13.86 0 21 0 C21 1.65 21 3.3 21 5 C16.38 5 11.76 5 7 5 C7 6.98 7 8.96 7 11 C11.29 11 15.58 11 20 11 C20 12.98 20 14.96 20 17 C15.71 17 11.42 17 7 17 C7 18.98 7 20.96 7 23 C11.95 23 16.9 23 22 23 C22 24.65 22 26.3 22 28 C14.74 28 7.48 28 0 28 C0 18.76 0 9.52 0 0 Z " fill="#4E6576" transform="translate(287,372)"/>
<path d="M0 0 C6.93 0 13.86 0 21 0 C21 1.98 21 3.96 21 6 C16.05 6 11.1 6 6 6 C6 7.65 6 9.3 6 11 C10.29 11 14.58 11 19 11 C19 12.65 19 14.3 19 16 C14.71 16 10.42 16 6 16 C6 18.31 6 20.62 6 23 C10.95 23 15.9 23 21 23 C21 24.65 21 26.3 21 28 C14.07 28 7.14 28 0 28 C0 18.76 0 9.52 0 0 Z " fill="#496172" transform="translate(258,372)"/>
<path d="M0 0 C3.625 1.5 3.625 1.5 6 3 C6 3.99 6 4.98 6 6 C4.25 7.125 4.25 7.125 2 8 C0.64914193 7.36959957 -0.68252676 6.69748583 -2 6 C-5.561827 5.55477163 -7.31754465 5.56897557 -10.375 7.5 C-12.66270228 11.01954197 -12.79501067 13.91615574 -12 18 C-10.73061576 20.68620182 -10.73061576 20.68620182 -8 22 C-4.96883395 22.3130292 -2.03464161 22.23343397 1 22 C1 19.36 1 16.72 1 14 C2.65 14 4.3 14 6 14 C6 17.96 6 21.92 6 26 C0.05118901 28.3795244 -4.66933977 28.69482856 -11 28 C-15.45531067 25.88958968 -18.15810959 23.60472604 -20 19 C-20.70241555 14.31722967 -20.47489688 10.96805902 -18.375 6.6875 C-12.86317472 0.45043455 -8.1250569 -1.14381869 0 0 Z " fill="#475F70" transform="translate(248,413)"/>
<path d="M0 0 C2.31 0 4.62 0 7 0 C9.64 5.94 12.28 11.88 15 18 C16.11375 15.7725 16.11375 15.7725 17.25 13.5 C19.5 9 21.75 4.5 24 0 C25.98 0 27.96 0 30 0 C28.01062264 6.36144738 25.61912841 12.42874153 22.875 18.5 C22.51535156 19.30953125 22.15570313 20.1190625 21.78515625 20.953125 C19.1381079 26.8618921 19.1381079 26.8618921 18 28 C16.00041636 28.04080783 13.99954746 28.04254356 12 28 C8.83512204 21.93276852 5.94663526 15.75995084 3.1875 9.5 C2.71654907 8.44039063 2.71654907 8.44039063 2.23608398 7.359375 C0 2.24124099 0 2.24124099 0 0 Z " fill="#486071" transform="translate(178,413)"/>
<path d="M0 0 C3.1875 2 3.1875 2 5 4 C4.67 4.99 4.34 5.98 4 7 C2.125 7.8125 2.125 7.8125 0 8 C-0.99 7.34 -1.98 6.68 -3 6 C-6.53950857 5.54814784 -8.33326715 5.57890557 -11.375 7.5 C-13.65416433 11.00640667 -13.81753559 13.92900647 -13 18 C-11.54002013 20.62716577 -11.54002013 20.62716577 -9 22 C-4.78588709 22.53797186 -1.81461638 21.79511359 2 20 C3.5 21.375 3.5 21.375 5 23 C5 23.66 5 24.32 5 25 C-0.31541041 28.98899607 -5.61242982 28.77897197 -12 28 C-16.45531067 25.88958968 -19.15810959 23.60472604 -21 19 C-21.70241555 14.31722967 -21.47489688 10.96805902 -19.375 6.6875 C-13.66398815 0.22503922 -8.44779801 -1.33521428 0 0 Z " fill="#486071" transform="translate(180,372)"/>
<path d="M0 0 C0.66 0.33 1.32 0.66 2 1 C-8.13554582 13.19058759 -18.6561722 24.91398647 -30 36 C-31.32 35.01 -32.64 34.02 -34 33 C-33.505 32.505 -33.505 32.505 -33 32 C-35.64 31.67 -38.28 31.34 -41 31 C-37.8474878 27.57638725 -34.33070756 25.11634303 -30.4375 22.625 C-24.06340595 18.46257208 -17.87877814 14.07782532 -11.75 9.5625 C-10.92814209 8.95937988 -10.10628418 8.35625977 -9.25952148 7.73486328 C-5.97256856 5.30097333 -2.83288263 2.96240158 0 0 Z " fill="#173F4D" transform="translate(283,191)"/>
<path d="M0 0 C7.92 0 15.84 0 24 0 C24 1.65 24 3.3 24 5 C21.03 5 18.06 5 15 5 C15 12.59 15 20.18 15 28 C13.02 28 11.04 28 9 28 C9 20.74 9 13.48 9 6 C6.03 6 3.06 6 0 6 C0 4.02 0 2.04 0 0 Z " fill="#486071" transform="translate(293,413)"/>
<path d="M0 0 C2.8125 2.4375 2.8125 2.4375 5 5 C5.33 5.33 5.66 5.66 6 6 C6.43784542 9.85303968 6.30585252 11.54122122 4.125 14.8125 C1.61855093 17.39266816 0.74538327 17.91717964 -2.8125 18.3125 C-6.7307645 17.92835642 -8.21293267 16.70743683 -11 14 C-12.42662219 11.14675563 -12.31033868 9.16545451 -12 6 C-8.58016217 0.87024326 -6.21171935 -0.73079051 0 0 Z " fill="#F5F6F7" transform="translate(340,418)"/>
<path d="M0 0 C2.31 0 4.62 0 7 0 C7 9.24 7 18.48 7 28 C4.69 28 2.38 28 0 28 C0 18.76 0 9.52 0 0 Z " fill="#506777" transform="translate(214,413)"/>
<path d="M0 0 C0.66 0 1.32 0 2 0 C0.80296355 13.39442512 -3.16234494 24.41150668 -10 36 C-10.99 36 -11.98 36 -13 36 C-13 35.01 -13 34.02 -13 33 C-13.66 32.67 -14.32 32.34 -15 32 C-14.61328125 31.23558594 -14.2265625 30.47117187 -13.828125 29.68359375 C-9.72609031 21.24599269 -7.14408933 13.11868581 -5 4 C-4.01 4.33 -3.02 4.66 -2 5 C-1.34 3.35 -0.68 1.7 0 0 Z " fill="#1A374A" transform="translate(331,229)"/>
<path d="M0 0 C0 3.3281403 -0.51645002 4.20678173 -2.23828125 6.95703125 C-2.72369385 7.73393311 -3.20910645 8.51083496 -3.70922852 9.3112793 C-4.5028479 10.54938354 -4.5028479 10.54938354 -5.3125 11.8125 C-5.8499585 12.65530518 -6.38741699 13.49811035 -6.94116211 14.36645508 C-10.45209342 19.79393458 -14.10856929 25.07322791 -18.0625 30.1875 C-18.74082886 31.07755737 -18.74082886 31.07755737 -19.43286133 31.9855957 C-20.72265625 33.60546875 -20.72265625 33.60546875 -23 36 C-23.99 36 -24.98 36 -26 36 C-28.0360882 37.27754554 -30.04109119 38.60699818 -32 40 C-31.00910392 36.36671436 -29.46380178 34.32842189 -26.78515625 31.80859375 C-23.08777336 28.18904051 -20.03670188 24.30298225 -17 20.125 C-15.95875088 18.71713901 -14.91708655 17.309585 -13.875 15.90234375 C-13.38128906 15.23187012 -12.88757813 14.56139648 -12.37890625 13.87060547 C-10.60372191 11.46241453 -8.81314471 9.06725243 -7 6.6875 C-6.505 6.03136719 -6.01 5.37523437 -5.5 4.69921875 C-3.83953248 2.81822039 -2.05060498 1.43630737 0 0 Z " fill="#EDF4F4" transform="translate(300,173)"/>
<path d="M0 0 C3.31919487 0.72706173 6.44460351 1.67501621 9.65625 2.78125 C10.71585938 3.14347656 11.77546875 3.50570313 12.8671875 3.87890625 C13.66382813 4.15605469 14.46046875 4.43320312 15.28125 4.71875 C14.95125 6.03875 14.62125 7.35875 14.28125 8.71875 C14.94125 8.71875 15.60125 8.71875 16.28125 8.71875 C16.61125 9.70875 16.94125 10.69875 17.28125 11.71875 C9.77335303 10.01592801 2.16259768 8.28204744 -4.71875 4.71875 C-5.04875 4.05875 -5.37875 3.39875 -5.71875 2.71875 C-3.85608378 0.13171359 -3.25352988 -0.33657206 0 0 Z " fill="#1F3B4F" transform="translate(220.71875,290.28125)"/>
<path d="M0 0 C1.258125 -0.04125 2.51625 -0.0825 3.8125 -0.125 C4.52019531 -0.14820313 5.22789062 -0.17140625 5.95703125 -0.1953125 C8 0 8 0 11 2 C11.3125 5 11.3125 5 11 8 C9 10 9 10 6.8359375 10.1953125 C4.55729167 10.13020833 2.27864583 10.06510417 0 10 C0 6.7 0 3.4 0 0 Z " fill="#F1F2F4" transform="translate(366,418)"/>
<path d="M0 0 C1.258125 -0.04125 2.51625 -0.0825 3.8125 -0.125 C4.52019531 -0.14820313 5.22789062 -0.17140625 5.95703125 -0.1953125 C8 0 8 0 11 2 C11.3125 5 11.3125 5 11 8 C9 10 9 10 6.8359375 10.1953125 C4.55729167 10.13020833 2.27864583 10.06510417 0 10 C0 6.7 0 3.4 0 0 Z " fill="#F1F2F4" transform="translate(232,377)"/>
<path d="M0 0 C0.66 0.99 1.32 1.98 2 3 C0.13128235 4.92314631 -1.74452468 6.8384057 -3.625 8.75 C-4.14707031 9.28882813 -4.66914063 9.82765625 -5.20703125 10.3828125 C-8.57102984 13.78834194 -11.92722989 16.48050858 -16 19 C-16.33 16.69 -16.66 14.38 -17 12 C-16.52054932 11.67201416 -16.04109863 11.34402832 -15.54711914 11.00610352 C-13.38482365 9.52600294 -11.22364932 8.04427358 -9.0625 6.5625 C-8.30775391 6.04623047 -7.55300781 5.52996094 -6.77539062 4.99804688 C-6.05673828 4.50498047 -5.33808594 4.01191406 -4.59765625 3.50390625 C-3.93258057 3.04830322 -3.26750488 2.5927002 -2.58227539 2.12329102 C-1.03649044 1.09224205 -1.03649044 1.09224205 0 0 Z " fill="#55AFB3" transform="translate(269,202)"/>
<path d="M0 0 C0.66 0 1.32 0 2 0 C1.07835578 7.72012568 0.14456517 14.85326097 -3 22 C-5 21 -5 21 -6 18 C-6.66 18 -7.32 18 -8 18 C-7.01 13.38 -6.02 8.76 -5 4 C-4.01 4.33 -3.02 4.66 -2 5 C-1.34 3.35 -0.68 1.7 0 0 Z " fill="#203C50" transform="translate(331,229)"/>
<path d="M0 0 C6.8359375 -0.1953125 6.8359375 -0.1953125 9 0 C11 2 11 2 11.25 4.5 C11 7 11 7 9 9 C5.98173347 9.27240673 3.03629378 9.08675125 0 9 C0 6.03 0 3.06 0 0 Z " fill="#FBFCFC" transform="translate(323,378)"/>
<path d="M0 0 C0.33 1.32 0.66 2.64 1 4 C1.99 3.67 2.98 3.34 4 3 C5 5 5 5 4.3984375 6.91015625 C1.60781967 12.77897467 1.60781967 12.77897467 -1.75 14 C-2.4925 14 -3.235 14 -4 14 C-4.33 14.99 -4.66 15.98 -5 17 C-5.66 17 -6.32 17 -7 17 C-5.1668733 11.00067626 -2.92678249 5.55079437 0 0 Z " fill="#1E3B51" transform="translate(183,179)"/>
<path d="M0 0 C0 4.67337302 -2.66457815 7.76226519 -5.125 11.625 C-5.8365625 12.80835938 -5.8365625 12.80835938 -6.5625 14.015625 C-10.21539001 19.76152225 -10.21539001 19.76152225 -14.3671875 21.0234375 C-15.23601562 21.01570313 -16.10484375 21.00796875 -17 21 C-6.93674699 4.53556534 -6.93674699 4.53556534 0 0 Z " fill="#E1E9EA" transform="translate(300,173)"/>
<path d="M0 0 C-0.33 0.99 -0.66 1.98 -1 3 C-1.99 3.33 -2.98 3.66 -4 4 C-4.21462891 4.96679688 -4.21462891 4.96679688 -4.43359375 5.953125 C-5 8 -5 8 -6.84765625 9.046875 C-7.94400391 9.39492187 -7.94400391 9.39492187 -9.0625 9.75 C-10.16271484 10.11351562 -10.16271484 10.11351562 -11.28515625 10.484375 C-12.13400391 10.73960937 -12.13400391 10.73960937 -13 11 C-13 9.68 -13 8.36 -13 7 C-13.66 6.34 -14.32 5.68 -15 5 C-12.8765984 4.16260219 -10.7512272 3.33019717 -8.625 2.5 C-7.44164062 2.0359375 -6.25828125 1.571875 -5.0390625 1.09375 C-2 0 -2 0 0 0 Z " fill="#1B3A4C" transform="translate(233,142)"/>
<path d="M0 0 C0.33 0.99 0.66 1.98 1 3 C-8.51372259 12.47543799 -8.51372259 12.47543799 -13.125 13.0625 C-14.548125 13.0315625 -14.548125 13.0315625 -16 13 C-13.05721495 9.96525291 -10.02568744 7.06934208 -6.875 4.25 C-5.88113281 3.36054688 -5.88113281 3.36054688 -4.8671875 2.453125 C-3 1 -3 1 0 0 Z " fill="#113E4C" transform="translate(251,224)"/>
<path d="M0 0 C-2.49099025 3.73648537 -3.68848852 3.96877288 -8 5 C-10.96547569 5.21847944 -13.90367918 5.19046978 -16.875 5.125 C-18.050625 5.11146484 -18.050625 5.11146484 -19.25 5.09765625 C-21.16680055 5.07428063 -23.08344191 5.03841653 -25 5 C-25 4.67 -25 4.34 -25 4 C-21.77245186 3.32533254 -18.54273065 2.66169431 -15.3125 2 C-14.40048828 1.80921875 -13.48847656 1.6184375 -12.54882812 1.421875 C-11.66259766 1.24140625 -10.77636719 1.0609375 -9.86328125 0.875 C-9.05157471 0.70742187 -8.23986816 0.53984375 -7.40356445 0.3671875 C-4.89938135 -0.0153713 -2.52924498 -0.06298509 0 0 Z " fill="#1D4051" transform="translate(162,217)"/>
<path d="M0 0 C3.63 2.31 7.26 4.62 11 7 C6.836056 9.081972 6.31501488 9 2 9 C-0.6875 6.5 -0.6875 6.5 -3 4 C-2.34 4 -1.68 4 -1 4 C-0.67 2.68 -0.34 1.36 0 0 Z " fill="#203C4E" transform="translate(202,278)"/>
<path d="M0 0 C2.92509086 3.90012114 3.47535095 5.38308839 4 10 C1.36 10 -1.28 10 -4 10 C-2.68 6.7 -1.36 3.4 0 0 Z " fill="#F1F3F4" transform="translate(160,420)"/>
<path d="M0 0 C2 1 2 1 2.8515625 3.06640625 C3.10679687 3.89011719 3.36203125 4.71382813 3.625 5.5625 C3.88539063 6.38878906 4.14578125 7.21507812 4.4140625 8.06640625 C4.60742188 8.70449219 4.80078125 9.34257812 5 10 C2.36 10 -0.28 10 -3 10 C-2.39009109 6.44219804 -1.4216319 3.3171411 0 0 Z " fill="#F1F3F4" transform="translate(204,379)"/>
<path d="M0 0 C0.66 0 1.32 0 2 0 C2.99 2.97 3.98 5.94 5 9 C2.36 9 -0.28 9 -3 9 C-2.01 6.03 -1.02 3.06 0 0 Z " fill="#F3F5F6" transform="translate(274,421)"/>
<path d="M0 0 C3.3 0.33 6.6 0.66 10 1 C3.85714286 8.71428571 3.85714286 8.71428571 -1 10 C-1.33 9.34 -1.66 8.68 -2 8 C-1.34 7.54625 -0.68 7.0925 0 6.625 C0.66 6.08875 1.32 5.5525 2 5 C2 4.34 2 3.68 2 3 C1.34 2.67 0.68 2.34 0 2 C0 1.34 0 0.68 0 0 Z " fill="#5DB2B9" transform="translate(241,221)"/>
<path d="M0 0 C6.27 0 12.54 0 19 0 C18.34 1.32 17.68 2.64 17 4 C15.10399631 3.68853528 13.20820413 3.37578283 11.3125 3.0625 C10.25675781 2.88847656 9.20101562 2.71445313 8.11328125 2.53515625 C5.39750396 2.06832879 2.69875765 1.55577384 0 1 C0 0.67 0 0.34 0 0 Z " fill="#59B5B9" transform="translate(144,223)"/>
<path d="M0 0 C1.77706209 2.66559313 2.87548273 5.0280615 4 8 C3.360625 8.28875 2.72125 8.5775 2.0625 8.875 C-0.15206079 9.82823451 -0.15206079 9.82823451 -1 12 C-4 6.25 -4 6.25 -4 4 C-3.01 3.67 -2.02 3.34 -1 3 C-0.67 2.01 -0.34 1.02 0 0 Z " fill="#203C50" transform="translate(183,250)"/>
<path d="M0 0 C0.66 0.99 1.32 1.98 2 3 C-0.64 5.64 -3.28 8.28 -6 11 C-6.66 10.67 -7.32 10.34 -8 10 C-7.9375 7.8125 -7.9375 7.8125 -7 5 C-4.8282781 3.06842043 -2.47398953 1.51798313 0 0 Z " fill="#53A5AC" transform="translate(269,202)"/>
<path d="M0 0 C0.66 0 1.32 0 2 0 C2 0.99 2 1.98 2 3 C1.34 3 0.68 3 0 3 C0 3.99 0 4.98 0 6 C1.32 5.67 2.64 5.34 4 5 C0.72291137 8.67033927 -2.71522208 10.69281189 -7 13 C-5.39516194 8.33138019 -3.02509806 3.90741833 0 0 Z " fill="#264050" transform="translate(192,277)"/>
<path d="M0 0 C2.97 1.65 5.94 3.3 9 5 C8.67 6.32 8.34 7.64 8 9 C8.33 9.99 8.66 10.98 9 12 C8.01 12 7.02 12 6 12 C4.39453125 9.8828125 4.39453125 9.8828125 2.8125 7.125 C2.01779297 5.76761719 2.01779297 5.76761719 1.20703125 4.3828125 C0 2 0 2 0 0 Z " fill="#1D3D4D" transform="translate(185,153)"/>
<path d="M0 0 C0.33 0 0.66 0 1 0 C1.33452052 7.43378943 1.13902852 13.19877155 -2 20 C-2.33 20 -2.66 20 -3 20 C-3.48452463 13.05514697 -1.69287491 6.7009632 0 0 Z " fill="#5CB9B8" transform="translate(251,107)"/>
<path d="M0 0 C0.66 0 1.32 0 2 0 C2.66 1.32 3.32 2.64 4 4 C3.26418258 5.1549921 2.51069961 6.29874185 1.75 7.4375 C1.33234375 8.07558594 0.9146875 8.71367187 0.484375 9.37109375 C-1.27248877 11.29902057 -2.46089803 11.61479436 -5 12 C-4.67 11.01 -4.34 10.02 -4 9 C-3.01 9 -2.02 9 -1 9 C-1.020625 8.071875 -1.04125 7.14375 -1.0625 6.1875 C-1 3 -1 3 0 0 Z " fill="#0F2D41" transform="translate(316,262)"/>
<path d="M0 0 C1.65 0 3.3 0 5 0 C3.84826645 2.46800047 2.95216435 4.04783565 1 6 C-0.98821313 6.39764263 -2.98944339 6.73775349 -5 7 C-4.6875 5.0625 -4.6875 5.0625 -4 3 C-3.01 2.67 -2.02 2.34 -1 2 C-0.67 1.34 -0.34 0.68 0 0 Z " fill="#103241" transform="translate(233,142)"/>
<path d="M0 0 C2 1 2 1 3.1875 4.3125 C3.90649268 7.57562063 4.20286847 8.99282882 3 12 C2.01 11.67 1.02 11.34 0 11 C0 7.37 0 3.74 0 0 Z " fill="#1C394D" transform="translate(253,112)"/>
<path d="M0 0 C0 1.98 0 3.96 0 6 C-2.64 6 -5.28 6 -8 6 C-8 5.34 -8 4.68 -8 4 C-1.125 0 -1.125 0 0 0 Z " fill="#13354A" transform="translate(252,215)"/>
<path d="M0 0 C0.66 0.66 1.32 1.32 2 2 C1.625 4.625 1.625 4.625 1 7 C-1.31 7.66 -3.62 8.32 -6 9 C-4.02 6.03 -2.04 3.06 0 0 Z " fill="#D7DCDD" transform="translate(289,185)"/>
<path d="M0 0 C1.9375 0.6875 1.9375 0.6875 4 2 C4.875 4.5 4.875 4.5 5 7 C4.34 7.66 3.68 8.32 3 9 C2.34 7.68 1.68 6.36 1 5 C0.34 5 -0.32 5 -1 5 C-0.67 3.35 -0.34 1.7 0 0 Z " fill="#274154" transform="translate(324,242)"/>
<path d="M0 0 C0.99 0.33 1.98 0.66 3 1 C0.42215154 3.64752004 -1.91648098 5.94432065 -5 8 C-4.45773019 4.20411134 -2.79872437 2.52788007 0 0 Z " fill="#55ABB3" transform="translate(238,230)"/>
<path d="M0 0 C-3.11910856 1.79275866 -5.67682428 2.34290718 -9.25 2.625 C-10.14203125 2.69976562 -11.0340625 2.77453125 -11.953125 2.8515625 C-12.62859375 2.90054688 -13.3040625 2.94953125 -14 3 C-9.63131385 -1.36868615 -5.86100769 -1.14921719 0 0 Z " fill="#0E2C3D" transform="translate(316,232)"/>
<path d="M0 0 C2.64 0.33 5.28 0.66 8 1 C7.67 1.66 7.34 2.32 7 3 C6.34 3 5.68 3 5 3 C5 3.66 5 4.32 5 5 C3.35 5 1.7 5 0 5 C0.33 4.01 0.66 3.02 1 2 C0.67 1.34 0.34 0.68 0 0 Z " fill="#0D2F41" transform="translate(268,142)"/>
<path d="M0 0 C2.475 0.495 2.475 0.495 5 1 C5 2.98 5 4.96 5 7 C4.67 6.01 4.34 5.02 4 4 C2.68 4.33 1.36 4.66 0 5 C0 3.35 0 1.7 0 0 Z " fill="#0F3147" transform="translate(173,230)"/>
<path d="M0 0 C3.63 0.66 7.26 1.32 11 2 C11 2.33 11 2.66 11 3 C7.04 3 3.08 3 -1 3 C-0.67 2.01 -0.34 1.02 0 0 Z " fill="#5EB2B8" transform="translate(350,218)"/>
<path d="M0 0 C0.66 0.33 1.32 0.66 2 1 C-0.31 3.97 -2.62 6.94 -5 10 C-5.66 8.68 -6.32 7.36 -7 6 C-4.69 4.02 -2.38 2.04 0 0 Z " fill="#2D424E" transform="translate(283,191)"/>
<path d="M0 0 C3.14605485 1.43002493 3.75452774 3.86376518 5.0625 6.9375 C1.62654834 5.41041037 -1.05662454 3.33822955 -3.9375 0.9375 C-1.9375 -0.0625 -1.9375 -0.0625 0 0 Z " fill="#384352" transform="translate(315.9375,283.0625)"/>
<path d="M0 0 C-1.5830577 4.2742558 -4.50568404 6.26531794 -8 9 C-8.66 8.67 -9.32 8.34 -10 8 C-8.71451591 6.66070495 -7.42141845 5.32871357 -6.125 4 C-5.04605469 2.88625 -5.04605469 2.88625 -3.9453125 1.75 C-2 0 -2 0 0 0 Z " fill="#253F52" transform="translate(266,222)"/>
<path d="M0 0 C1.32 0.33 2.64 0.66 4 1 C3.34 2.32 2.68 3.64 2 5 C0.35 4.67 -1.3 4.34 -3 4 C-2.67 3.34 -2.34 2.68 -2 2 C-1.34 2 -0.68 2 0 2 C0 1.34 0 0.68 0 0 Z " fill="#173647" transform="translate(282,146)"/>
<path d="M0 0 C0.26218749 3.14624993 0.24754367 4.61837017 -1.5 7.3125 C-2.2425 8.1478125 -2.2425 8.1478125 -3 9 C-3.33 6.36 -3.66 3.72 -4 1 C-2 0 -2 0 0 0 Z " fill="#223F51" transform="translate(177,234)"/>
<path d="M0 0 C1.9375 0.375 1.9375 0.375 4 1 C4.33 1.66 4.66 2.32 5 3 C4.0625 5.125 4.0625 5.125 3 7 C2.01 6.67 1.02 6.34 0 6 C0.66 6 1.32 6 2 6 C2 5.34 2 4.68 2 4 C1.01 3.34 0.02 2.68 -1 2 C-0.67 1.34 -0.34 0.68 0 0 Z " fill="#0B2C3E" transform="translate(293,170)"/>
<path d="M0 0 C0.33 0.99 0.66 1.98 1 3 C1.66 3 2.32 3 3 3 C3 6.3 3 9.6 3 13 C2.67 13 2.34 13 2 13 C-0.28571429 4.57142857 -0.28571429 4.57142857 0 0 Z " fill="#1D3A4A" transform="translate(249,321)"/>
<path d="M0 0 C1.32 0 2.64 0 4 0 C3.67 1.65 3.34 3.3 3 5 C2.01 5 1.02 5 0 5 C-0.5625 3.0625 -0.5625 3.0625 -1 1 C-0.67 0.67 -0.34 0.34 0 0 Z " fill="#113042" transform="translate(281,292)"/>
<path d="M0 0 C0.66 0.33 1.32 0.66 2 1 C2 1.99 2 2.98 2 4 C-3.75 7 -3.75 7 -6 7 C-6 6.34 -6 5.68 -6 5 C-4.04072937 3.2856382 -2.04119788 1.61594832 0 0 Z " fill="#CED5DA" transform="translate(230,244)"/>
<path d="M0 0 C0.66 0.33 1.32 0.66 2 1 C-0.31 3.64 -2.62 6.28 -5 9 C-5 4.61031544 -2.87194899 3.23094261 0 0 Z " fill="#E1EDEE" transform="translate(274,204)"/>
<path d="M0 0 C-0.33 0.99 -0.66 1.98 -1 3 C-1.99 3.33 -2.98 3.66 -4 4 C-4.66 4.66 -5.32 5.32 -6 6 C-6.66 4.68 -7.32 3.36 -8 2 C-2.25 0 -2.25 0 0 0 Z " fill="#254355" transform="translate(233,142)"/>
<path d="M0 0 C0 1.65 0 3.3 0 5 C-2.31 5 -4.62 5 -7 5 C-6.01 4.34 -5.02 3.68 -4 3 C-4 2.34 -4 1.68 -4 1 C-1 0 -1 0 0 0 Z " fill="#103849" transform="translate(244,141)"/>
<path d="M0 0 C0.66 0.99 1.32 1.98 2 3 C1.34 3 0.68 3 0 3 C-0.33 4.32 -0.66 5.64 -1 7 C-2.32 7.33 -3.64 7.66 -5 8 C-3.35 5.36 -1.7 2.72 0 0 Z " fill="#274356" transform="translate(315,262)"/>
<path d="M0 0 C0.33 0.66 0.66 1.32 1 2 C1.99 1.34 2.98 0.68 4 0 C5.32 0 6.64 0 8 0 C7.67 0.99 7.34 1.98 7 3 C4.69 3 2.38 3 0 3 C0 2.01 0 1.02 0 0 Z " fill="#1F4155" transform="translate(282,201)"/>
<path d="M0 0 C0.66 0.99 1.32 1.98 2 3 C0.68 4.32 -0.64 5.64 -2 7 C-2.33 6.01 -2.66 5.02 -3 4 C-1.5625 1.8125 -1.5625 1.8125 0 0 Z " fill="#233E4F" transform="translate(298,178)"/>
<path d="M0 0 C4.8 2.46153846 4.8 2.46153846 5.8125 5.1875 C5.874375 5.785625 5.93625 6.38375 6 7 C5.01 7 4.02 7 3 7 C0 2.77777778 0 2.77777778 0 0 Z " fill="#263847" transform="translate(185,153)"/>
</svg>
